<svg xmlns="http://www.w3.org/2000/svg" width="800" height="280" viewBox="0 0 800 280">
  <style>
    path {
      fill: #000;
    }
    .bg {
      width: 100%;
      height: 100%;
      fill: #fff;
      opacity: .7;
    }
    .katakana {
      opacity: .8;
    }
    .check-icon {
      fill: #009201;
    }
  </style>
  <rect class="bg" />
  <!-- https://iconmonstr.com/check-mark-5-svg/ -->
  <path class="check-icon" d="M273.493,105.587A27.913,27.913,0,1,1,245.58,133.5,27.944,27.944,0,0,1,273.493,105.587Zm0-5.583a33.495,33.495,0,1,0,33.5,33.495A33.5,33.5,0,0,0,273.493,100Zm12.262,20.934L270,137.083l-7.38-7-5.181,5.186L270,147.455l20.934-21.333Z"/>
  <path class="katakana" d="M368.222,110.87l-1.5.426H347.675a61.272,61.272,0,0,0,3.139-6.683c1.284,0.071,2.069-.356,2.354-1.138l-11.486-2.489c-4.209,11.946-11.629,23.464-21.688,30.788a54.786,54.786,0,0,1,7.419,5.617,81.028,81.028,0,0,0,15.339-17.847h19.691a59.288,59.288,0,0,1-6.564,13.936,109.815,109.815,0,0,0-12.485-5.475l-4.922,6.969a86.882,86.882,0,0,1,12.057,6.043,65.611,65.611,0,0,1-23.258,16.994,27.788,27.788,0,0,1,7.063,6.755,67.592,67.592,0,0,0,24.042-19.056,95.669,95.669,0,0,1,8.134,5.759l5.208-8.745c-2.069-1.422-5.351-3.555-7.848-5.049,3.71-5.83,7.206-14.007,9.917-22.255a2.432,2.432,0,0,0,1.141-1.28Zm57-5.12-1.5.5H386.415v8.532h32.176c-6.421,14.861-20.9,31.926-38.668,41.524a46.039,46.039,0,0,1,6.635,6.826c9.275-5.546,18.549-14.22,25.256-21.757A225.177,225.177,0,0,1,433.573,163.2l7.919-6.968a286.541,286.541,0,0,0-23.828-21.9A115.007,115.007,0,0,0,431.005,110.8a2.155,2.155,0,0,0,1.284-1.209Zm67.35,6.186-1.284.64H470.959c1.213-2.346,2.64-4.835,3.781-7.395a2.266,2.266,0,0,0,2.354-1.279l-11.343-2.631a70.053,70.053,0,0,1-22.4,30.147,48.089,48.089,0,0,1,7.348,5.831,75.407,75.407,0,0,0,15.2-16.283h20.975c-5.351,15.927-15.767,28.441-33.6,36.761a33.541,33.541,0,0,1,6.706,6.825c19.263-9.67,30.392-23.677,38.454-46.928a4.17,4.17,0,0,0,1.57-1.351Z"/>
  <path d="M365.924,209.764h0.57V193.757h5.931v-0.539H359.994v0.539h5.93v16.007Zm6.879,0h0.627l2.178-5.745h7.653l2.19,5.745h0.615l-6.341-16.546h-0.581ZM379.429,194h0.023l3.6,9.494h-7.242Zm13.368,16c3.319,0,5.588-1.777,5.588-4.4v-0.011c0-2.282-1.277-3.5-4.63-4.277L392,200.889c-2.863-.665-4.094-1.777-4.094-3.692v-0.023c0-2.144,1.938-3.646,4.653-3.646,2.794,0,4.744,1.594,4.961,4.025l0.011,0.137h0.559l-0.011-.137c-0.217-2.741-2.407-4.564-5.509-4.564-3.011,0-5.235,1.766-5.235,4.2V197.2c0,2.224,1.312,3.474,4.448,4.208l1.757,0.413c3.09,0.711,4.276,1.789,4.276,3.761v0.011c0,2.316-2.018,3.864-5.006,3.864-3.034,0-5.11-1.605-5.3-4.013l-0.012-.149h-0.57l0.011,0.149C387.141,208.193,389.444,209.993,392.8,209.993Zm13.653,0c3.707,0,6.045-2.327,6.045-5.951V193.218h-0.57v10.813c0,3.325-2.1,5.423-5.475,5.423a5.068,5.068,0,0,1-5.462-5.423V193.218h-0.571v10.824C400.417,207.654,402.744,209.993,406.45,209.993Zm8.876-.229h0.57V203.63l2.532-2.729,7.23,8.863h0.73l-7.55-9.265,6.752-7.281h-0.73l-8.919,9.609H415.9v-9.609h-0.57v16.546Zm18.625,0.229c3.707,0,6.045-2.327,6.045-5.951V193.218h-0.571v10.813c0,3.325-2.1,5.423-5.474,5.423a5.068,5.068,0,0,1-5.463-5.423V193.218h-0.57v10.824C427.918,207.654,430.245,209.993,433.951,209.993Z"/>
</svg>
